<svg xmlns="http://www.w3.org/2000/svg" viewBox="0 0 108.71 108.71"><defs><style>.cls-1{fill:#fff100;}.cls-2{fill:#231815;}.cls-3{fill:#1d2088;}.cls-4,.cls-5{fill:none;}.cls-5{stroke:#231815;stroke-width:0.99px;}</style></defs><g id="レイヤー_2" data-name="レイヤー 2"><g id="レイヤー_1-2" data-name="レイヤー 1"><circle class="cls-1" cx="54.35" cy="54.35" r="51.1"/><path class="cls-2" d="M77.65,16.41A44.87,44.87,0,0,1,93.3,32.76L100,31.4A51.35,51.35,0,0,0,78.51,9.32Z"/><path class="cls-2" d="M100.92,44v0A4.84,4.84,0,0,1,99,49.6l-.35.21c.15,1.5.23,3,.23,4.54a44.52,44.52,0,0,1-70,36.54l-3.74,2.2a3.63,3.63,0,0,1-1.84.5,3.84,3.84,0,0,1-3.14-1.71A5.08,5.08,0,0,1,20,86.47l1.33-2.23c-.56-.61-1.09-1.25-1.62-1.9q-2.91,1.71-5.68,3.4a51.08,51.08,0,0,0,90.05-43Z"/><path class="cls-2" d="M14.08,73.38a44.54,44.54,0,0,1,51-62.25l3.5-5.84A51.09,51.09,0,0,0,8.67,77.23C10.42,76,12.23,74.67,14.08,73.38Z"/><path class="cls-2" d="M99.08,43.27l4.72-1.85c-.14-.51-.28-1-.43-1.53s-.31-1-.47-1.52c-.31-.93-.63-1.84-1-2.73-.2-.51-.41-1-.63-1.52s-.44-1-.68-1.51L73.72,38.06,77.27,8.67,76,8.05c-.42-.2-.85-.39-1.29-.58-.67-.29-1.35-.57-2-.83-.46-.18-.91-.34-1.37-.5s-.91-.32-1.38-.47L47.32,43.42l-24.69,5a3,3,0,0,0-2.16,2.38,3.65,3.65,0,0,0,.91,3.34l9.82,9.61c-8,5-15.36,9.85-21.93,14.66.24.45.49.9.74,1.35s.52.88.79,1.32.44.7.67,1,.57.87.86,1.3.6.85.91,1.26c4.69-2.86,9.5-5.65,14.36-8.33L21.15,87.14a3.76,3.76,0,0,0,.12,4,2.54,2.54,0,0,0,2.06,1.16A2.5,2.5,0,0,0,24.51,92L46.68,78.9,62.77,94.64a2.46,2.46,0,0,0,1.69.72,2.23,2.23,0,0,0,1-.22,3.21,3.21,0,0,0,1.69-2.56l3.34-27.69L98.36,48.48a3.58,3.58,0,0,0,1.32-4.1A3.21,3.21,0,0,0,99.08,43.27Z"/><path class="cls-1" d="M97.18,43.94a1.21,1.21,0,0,0-.38.06L72.58,52.6l-.17.08L60.18,59.37a1.65,1.65,0,0,0-.79,1.3l-1.27,14-7.41-7.25a1.18,1.18,0,0,0-1.44-.2L39,73.26l2.31-3.86a1.9,1.9,0,0,0,0-1.94l-.07-.08c13.33-6.78,26.29-12.66,37-17.26,9.52-4.09,18.15-7.54,25.11-10.23-.15-.51-.31-1-.47-1.52-.31-.93-.63-1.84-1-2.73-.2-.51-.41-1-.63-1.52L72.12,40,76,8.05c-.42-.2-.85-.39-1.29-.58-.67-.29-1.35-.57-2-.83-.46-.18-.91-.34-1.36-.5L48.09,44.91,22.85,50a1.49,1.49,0,0,0-1.08,1.19,1.83,1.83,0,0,0,.45,1.67L33.66,64.07C26.18,68.62,18,74,10,79.76c.26.44.52.88.79,1.32s.44.7.67,1,.57.87.86,1.3c6.28-3.85,12.78-7.54,19.31-11l-9.4,15.7a1.88,1.88,0,0,0,.06,2,1.25,1.25,0,0,0,1,.58,1.16,1.16,0,0,0,.59-.16L46.86,77,63.62,93.37a1.14,1.14,0,0,0,1.33.26,1.62,1.62,0,0,0,.85-1.28l3.44-28.54L97.77,47A1.79,1.79,0,0,0,98.43,45,1.37,1.37,0,0,0,97.18,43.94ZM38.42,55.38,51.3,53.62a1.31,1.31,0,0,0,.92-.63l9.46-15-.92,10.91C58.5,50,51.33,53.72,42,59.13a1.65,1.65,0,0,0-.4-.66Z"/><path class="cls-3" d="M48.86,46.4,23.07,51.62l12,11.73,5.66-3.62-5.64-5.52L51.15,52,63.51,32.4,62,50S35.2,63.26,10.8,81.08c.22.35.44.7.67,1C43.1,62.68,81.16,46.77,102.9,38.36c-.31-.92-.63-1.83-1-2.72L70.52,42,74.69,7.47c-.67-.29-1.35-.57-2-.83Z"/><path class="cls-3" d="M97.18,45.56,73,54.16,60.73,60.85,59.19,77.79l-9.32-9.12L34.78,77.56l5.45-9.11-6.31,2.9L23.33,89l23.72-14,17.41,17L68,62.73Z"/><path class="cls-2" d="M84.33,65.13v0h0Z"/><path class="cls-4" d="M84.33,65.13v0h0Z"/><path class="cls-2" d="M19.51,82.53l-.2-.09A7.24,7.24,0,0,1,17,80.79a7.55,7.55,0,0,1-1.57-2.47,8.34,8.34,0,0,1,0-5.93A7,7,0,0,1,17,70a7.14,7.14,0,0,1,2.4-1.55,7.73,7.73,0,0,1,2.89-.54h5.31a2.76,2.76,0,0,1,1,.2,2.94,2.94,0,0,1,.89.59,2.69,2.69,0,0,1,.79,1.91v1.71a3.08,3.08,0,0,1-.07.61l.15.18,2.08-3.46a3.86,3.86,0,0,1,1.07-1.2,3.49,3.49,0,0,1,2.08-.67A3.74,3.74,0,0,1,37,68a3.52,3.52,0,0,1,.77.45,3.88,3.88,0,0,1,1,1.17l1.71,2.83V70.56a2.72,2.72,0,0,1,.78-1.91,2.69,2.69,0,0,1,1.91-.79h7a6.93,6.93,0,0,1,2.45.43l.14,0a5.93,5.93,0,0,1,1.95,1.29A6,6,0,0,1,56,71.72a7.31,7.31,0,0,1,.29,1.07l1.91-3.19a4,4,0,0,1,1.07-1.2,3.49,3.49,0,0,1,2.08-.67,3.66,3.66,0,0,1,1.33.25,3.37,3.37,0,0,1,.78.45,3.88,3.88,0,0,1,1,1.17l1.86,3.09c0-.1.07-.2.11-.3a7,7,0,0,1,4-4,7.64,7.64,0,0,1,2.88-.54h5.32a2.67,2.67,0,0,1,1,.2.2.2,0,0,1,.08,0,2.56,2.56,0,0,1,1.1-.24h8.76a2.75,2.75,0,0,1,1,.2,2.94,2.94,0,0,1,.89.59,2.69,2.69,0,0,1,.79,1.91v1.71a2.64,2.64,0,0,1-.5,1.56,2.53,2.53,0,0,1,.13.83V76.1a2.64,2.64,0,0,1-.16.93,2.72,2.72,0,0,1,.54,1.62v1.72a2.7,2.7,0,0,1-2.69,2.69H80.91a2.61,2.61,0,0,1-.79-.12,2.66,2.66,0,0,1-.79.12H73.4a7.39,7.39,0,0,1-2.78-.53l-.2-.09a5.6,5.6,0,0,1-.55-.27,2.7,2.7,0,0,1-2,.89H65.81a2.76,2.76,0,0,1-1-.2,2.68,2.68,0,0,1-1.3-1.12l-.68-1.15H59.87l-.68,1.15a2.71,2.71,0,0,1-2.32,1.32H52.26a2.67,2.67,0,0,1-1-.2,2.59,2.59,0,0,1-1-.68l-1.69-1.85h-1v0a2.7,2.7,0,0,1-2.69,2.69h-1.7a3.07,3.07,0,0,1-.53,0,3.07,3.07,0,0,1-.53,0H40a2.7,2.7,0,0,1-2.31-1.32L37,80.59H34.09l-.68,1.15a2.71,2.71,0,0,1-2.31,1.32h-2a2.38,2.38,0,0,1-.46,0,2.38,2.38,0,0,1-.46,0H22.3A7.45,7.45,0,0,1,19.51,82.53Z"/><path class="cls-1" d="M91,80.37V78.65a1.33,1.33,0,0,0-.84-1.24,1.4,1.4,0,0,0-.31-.09,1.1,1.1,0,0,0,.38-.27,1.31,1.31,0,0,0,.4-1V74.66a1.36,1.36,0,0,0-.58-1.11A1.34,1.34,0,0,0,91,72.27V70.56a1.38,1.38,0,0,0-.39-1,1.51,1.51,0,0,0-.45-.29,1.24,1.24,0,0,0-.5-.1H80.91a1.34,1.34,0,0,0-1,.39l-.15.17a1.31,1.31,0,0,0-.58-.46,1.45,1.45,0,0,0-.51-.1H73.4a6.51,6.51,0,0,0-2.39.44,5.73,5.73,0,0,0-3.26,3.24,6.62,6.62,0,0,0-.46,2.47,6.93,6.93,0,0,0,.25,1.84l-4.17-6.91a2.41,2.41,0,0,0-.69-.79,2.13,2.13,0,0,0-.46-.27,2.31,2.31,0,0,0-.83-.15,2.15,2.15,0,0,0-1.28.41,2.51,2.51,0,0,0-.71.8l-4.83,8-.74-.74a4.81,4.81,0,0,0,.52-.67,5,5,0,0,0,.75-2.79,5.58,5.58,0,0,0-.33-1.95,4.26,4.26,0,0,0-1-1.6,4.47,4.47,0,0,0-1.49-1l-.11,0a5.49,5.49,0,0,0-2-.34h-7a1.34,1.34,0,0,0-1.35,1.35v6.71l-4.2-7a2.66,2.66,0,0,0-.69-.79,2,2,0,0,0-.47-.27,2.21,2.21,0,0,0-.82-.15,2.16,2.16,0,0,0-1.29.41,2.51,2.51,0,0,0-.71.8l-4,6.75V74.66a1.31,1.31,0,0,0-.4-1,1.43,1.43,0,0,0-.44-.3,1.38,1.38,0,0,0-.29-.08A1.34,1.34,0,0,0,29,72.27V70.56a1.38,1.38,0,0,0-.39-1,1.51,1.51,0,0,0-.45-.29,1.25,1.25,0,0,0-.51-.1H22.3a6.47,6.47,0,0,0-2.39.44,5.71,5.71,0,0,0-3.27,3.24,6.62,6.62,0,0,0-.45,2.47,6.69,6.69,0,0,0,.45,2.47,6,6,0,0,0,3.22,3.38l.16.07a5.93,5.93,0,0,0,2.28.43h5.92a1.44,1.44,0,0,0,.46-.08,1.44,1.44,0,0,0,.46.08h2a1.33,1.33,0,0,0,1.15-.66l1.14-1.91h0a1.25,1.25,0,0,0,.51.1h3.87l1.08,1.82a1.38,1.38,0,0,0,.65.55,1.25,1.25,0,0,0,.51.1h2.06a1.32,1.32,0,0,0,.53-.11h0a1.25,1.25,0,0,0,.51.1h1.7a1.33,1.33,0,0,0,1.34-1.34V79h3l2.08,2.28a1.36,1.36,0,0,0,.49.34,1.25,1.25,0,0,0,.51.1h4.61A1.34,1.34,0,0,0,58,81.05l1.13-1.91h0a1.24,1.24,0,0,0,.5.1h3.88l1.08,1.82a1.29,1.29,0,0,0,.65.55,1.25,1.25,0,0,0,.51.1h2.06A1.34,1.34,0,0,0,69,81a1.38,1.38,0,0,0,.13-1A6,6,0,0,0,71,81.21l.17.07a5.92,5.92,0,0,0,2.27.43h5.93a1.34,1.34,0,0,0,.79-.26,1.12,1.12,0,0,0,.28.16,1.25,1.25,0,0,0,.51.1h8.77a1.34,1.34,0,0,0,.95-.39A1.37,1.37,0,0,0,91,80.37ZM50.61,74.71a.76.76,0,0,1-.42.07h-4V73.62h4a1.13,1.13,0,0,1,.39,0l.07,0a1,1,0,0,1,.07.45A1,1,0,0,1,50.61,74.71Zm29-1.39h0Z"/><path class="cls-3" d="M22.3,80.37a4.7,4.7,0,0,1-3.41-1.44,4.72,4.72,0,0,1-1-1.59,5.36,5.36,0,0,1-.36-2,5.2,5.2,0,0,1,.36-2,4.42,4.42,0,0,1,1-1.52,4.5,4.5,0,0,1,1.51-1,5.1,5.1,0,0,1,1.9-.34h5.31v1.71H22.3a3.05,3.05,0,0,0-1.22.24,2.72,2.72,0,0,0-1,.65,2.94,2.94,0,0,0-.63,1,3.31,3.31,0,0,0-.23,1.28,3.35,3.35,0,0,0,.23,1.28,2.93,2.93,0,0,0,.63,1,2.76,2.76,0,0,0,1,.67,3.05,3.05,0,0,0,1.22.24h4.19V76.1H22.07V74.66h6.15v5.71Z"/><path class="cls-3" d="M40,80.37,38.56,77.9H33.92l.81-1.39h3l-2.19-3.67L31.1,80.37h-2L34.78,71a1.38,1.38,0,0,1,.35-.4.81.81,0,0,1,.49-.15.76.76,0,0,1,.48.15,1.36,1.36,0,0,1,.34.4l5.65,9.4Z"/><path class="cls-3" d="M52.26,80.37l-2.49-2.73H46.1V76.13h4.09a1.84,1.84,0,0,0,1.41-.51,2.07,2.07,0,0,0,.47-1.46,1.89,1.89,0,0,0-.49-1.42,2,2,0,0,0-1.39-.47H44.85v8.1h-1.7V70.56h7a4.14,4.14,0,0,1,1.5.25,3,3,0,0,1,1.82,1.84,4.29,4.29,0,0,1,.24,1.48,3.69,3.69,0,0,1-.53,2.06,2.94,2.94,0,0,1-1.49,1.19l3,3Z"/><path class="cls-3" d="M65.81,80.37,64.33,77.9H59.69l.81-1.39h3l-2.18-3.67-4.46,7.53H54.92L60.56,71a1.25,1.25,0,0,1,.35-.4.84.84,0,0,1,1,0,1.38,1.38,0,0,1,.35.4l5.65,9.4Z"/><path class="cls-3" d="M73.4,80.37A4.57,4.57,0,0,1,71.51,80a4.46,4.46,0,0,1-1.51-1,4.72,4.72,0,0,1-1-1.59,5.36,5.36,0,0,1-.36-2,5.2,5.2,0,0,1,.36-2,4.36,4.36,0,0,1,2.51-2.49,5.08,5.08,0,0,1,1.89-.34h5.32v1.71H73.4a3.09,3.09,0,0,0-1.22.24,2.77,2.77,0,0,0-1,.65,3.12,3.12,0,0,0-.64,1,3.51,3.51,0,0,0-.23,1.28,3.55,3.55,0,0,0,.23,1.28,3.11,3.11,0,0,0,.64,1,2.82,2.82,0,0,0,1,.67,3.09,3.09,0,0,0,1.22.24h4.2V76.1H73.17V74.66h6.16v5.71Z"/><path class="cls-3" d="M80.91,80.37V70.56h8.76v1.71H82.61v6.38h7.07v1.72Zm3-4.27V74.66H89.3V76.1Z"/><path class="cls-2" d="M47.87,68.39a4.86,4.86,0,0,1-4.78-6.79l3.83-10.54c.08-.22.17-.44.25-.65L32.34,65.7a8.15,8.15,0,0,1-5.91,2.69H18.87a4.59,4.59,0,0,1-4.46-2.71c-.54-1.28-.71-3.26,1.5-5.51L28.1,47.63a6.29,6.29,0,0,1-3.44,1H18.39a4.85,4.85,0,0,1-4.78-6.79L17.55,31c1.55-4.27,4.82-6.62,9.19-6.62H52.16c3.28,0,5,1.42,5.81,2.61a2.11,2.11,0,0,1,.21.31,15.05,15.05,0,0,1,9.27-2.92H84.82c3.93,0,6.76,1.2,8.43,3.56s1.86,5.73.41,9.77l-2.73,7.49A16.06,16.06,0,0,1,84,53.88,4.76,4.76,0,0,1,85.16,55a5,5,0,0,1,.47,4.72L84,64.3a6,6,0,0,1-5.86,4.09Z"/><path class="cls-1" d="M91.63,29.06c-1.27-1.8-3.56-2.72-6.81-2.72H67.45A12.54,12.54,0,0,0,57,31.21a4.27,4.27,0,0,0-.66-3.09,4.79,4.79,0,0,0-4.2-1.78H26.74c-3.53,0-6.07,1.84-7.34,5.33L15.47,42.48a2.89,2.89,0,0,0,2.92,4.14h6.27a4.07,4.07,0,0,0,4-2.78l2.19-6h9.39a4.59,4.59,0,0,1-.56.71l-22.37,23c-.43.44-1.75,1.78-1.09,3.36a2.58,2.58,0,0,0,2.64,1.49h7.56a6.24,6.24,0,0,0,4.49-2.09L52.09,42.49a10.41,10.41,0,0,0,1.42-1.74,2.65,2.65,0,0,0,.33.63,3.05,3.05,0,0,0,2.69,1.22H59c-4.81.81-8.31,3.92-10.21,9.14L44.94,62.27a2.89,2.89,0,0,0,2.93,4.14H78.11a4.07,4.07,0,0,0,4-2.79l1.65-4.54a2.89,2.89,0,0,0-2.92-4.14H61.31c.34-.9.76-1.08,1.42-1.08H76.24c6.14,0,10.57-3.23,12.83-9.34L91.8,37C93,33.63,93,31,91.63,29.06ZM76.56,41.28c-.35.93-.77,1.11-1.44,1.11H64.22a4,4,0,0,0,2.59-2.58l.33-.88c.34-.94.76-1.11,1.43-1.11h9.25Z"/><path class="cls-3" d="M26.81,43.16a2.1,2.1,0,0,1-2.15,1.49H18.39c-1.07,0-1.43-.5-1.07-1.49l3.94-10.82a5.45,5.45,0,0,1,5.48-4H52.16q4,0,2.56,4l-2.14,5.87a8,8,0,0,1-1.89,2.9L29.5,63a4.31,4.31,0,0,1-3.07,1.49H18.87c-1.07,0-1.12-.5-.14-1.49L41.11,39.9a5.87,5.87,0,0,0,1.34-2.13l.41-1.13c.19-.53,0-.8-.51-.8H30.28a1.1,1.1,0,0,0-1.1.8Z"/><path class="cls-3" d="M65,39.14a2.1,2.1,0,0,1-2.15,1.49H56.53c-1.07,0-1.43-.5-1.06-1.49l1-2.78q2.93-8,11-8H84.82q8,0,5.12,8l-2.72,7.48q-3,8.05-11,8H62.73a3.26,3.26,0,0,0-3.29,2.41l-.66,1.81c-.2.54,0,.8.51.8H80.85c1.07,0,1.43.5,1.07,1.49L80.26,63a2.1,2.1,0,0,1-2.15,1.49H47.87c-1.08,0-1.43-.5-1.07-1.49l3.83-10.54q2.94-8,11-8H75.12A3.27,3.27,0,0,0,78.41,42l1.35-3.7c.58-1.61.07-2.41-1.54-2.41H68.57a3.26,3.26,0,0,0-3.29,2.41Z"/><circle class="cls-5" cx="54.35" cy="54.35" r="53.86"/></g></g></svg>