<svg xmlns="http://www.w3.org/2000/svg" viewBox="0 0 107.72 107.72"><defs><style>.cls-1{fill:#231815;}.cls-2{fill:#1d2088;}.cls-3{fill:#fff;}.cls-4{fill:#fff100;}.cls-5{fill:none;}</style></defs><g id="レイヤー_2" data-name="レイヤー 2"><g id="レイヤー_1-2" data-name="レイヤー 1"><circle class="cls-1" cx="53.86" cy="53.86" r="53.86"/><circle class="cls-2" cx="53.86" cy="53.86" r="51.1"/><path class="cls-3" d="M77.16,15.91A44.84,44.84,0,0,1,92.8,32.26l6.7-1.36A51.22,51.22,0,0,0,78,8.83Z"/><path class="cls-3" d="M100.43,43.45v0a4.84,4.84,0,0,1-1.91,5.62l-.35.21a42.46,42.46,0,0,1,.23,4.54,44.52,44.52,0,0,1-70,36.53l-3.73,2.2a3.71,3.71,0,0,1-1.85.51,3.82,3.82,0,0,1-3.13-1.72A5,5,0,0,1,19.53,86l1.33-2.22c-.56-.62-1.1-1.26-1.62-1.9q-2.91,1.7-5.69,3.39a51.09,51.09,0,0,0,90.06-43Z"/><path class="cls-3" d="M13.59,72.88a44.51,44.51,0,0,1,51-62.24l3.5-5.85A51.09,51.09,0,0,0,8.17,76.73Q10.8,74.81,13.59,72.88Z"/><path class="cls-3" d="M98.58,42.77l4.72-1.84c-.13-.52-.28-1-.43-1.54s-.3-1-.47-1.52c-.3-.92-.63-1.83-1-2.73-.2-.51-.42-1-.63-1.52s-.45-1-.68-1.5L73.22,37.57,76.77,8.18c-.42-.22-.85-.42-1.28-.62L74.2,7c-.68-.29-1.35-.57-2-.83l-1.36-.5-1.38-.46L46.82,42.92l-24.69,5A3,3,0,0,0,20,50.3a3.67,3.67,0,0,0,.91,3.35l9.82,9.61q-12,7.41-21.93,14.65c.24.46.49.91.75,1.36s.51.88.78,1.31.44.71.67,1.06.57.86.87,1.29.6.85.9,1.27c4.69-2.87,9.5-5.65,14.36-8.33L20.65,86.64a3.8,3.8,0,0,0,.12,4,2.54,2.54,0,0,0,2.06,1.16A2.36,2.36,0,0,0,24,91.46L46.19,78.4,62.27,94.14a2.42,2.42,0,0,0,1.7.72,2.29,2.29,0,0,0,1-.22,3.19,3.19,0,0,0,1.68-2.55L70,64.4,97.86,48a3.57,3.57,0,0,0,1.33-4.09A3.46,3.46,0,0,0,98.58,42.77Z"/><path class="cls-2" d="M96.68,43.44a1,1,0,0,0-.38.07L72.09,52.1l-.18.08-12.23,6.7a1.62,1.62,0,0,0-.78,1.3l-1.28,14-7.4-7.24a1.24,1.24,0,0,0-.85-.37,1.18,1.18,0,0,0-.59.17l-10.27,6,2.32-3.86a1.92,1.92,0,0,0,0-1.94l-.06-.08C54.06,60.1,67,54.22,77.76,49.62c9.53-4.08,18.15-7.54,25.11-10.23-.15-.51-.3-1-.47-1.52-.3-.92-.63-1.83-1-2.73-.2-.51-.42-1-.63-1.52L71.62,39.54l3.87-32L74.2,7c-.68-.29-1.35-.57-2-.83l-1.36-.5L47.59,44.41,22.35,49.53a1.48,1.48,0,0,0-1.08,1.18,1.85,1.85,0,0,0,.46,1.68L33.16,63.57c-7.48,4.56-15.7,9.89-23.64,15.7.25.44.51.88.78,1.31s.44.71.67,1.06.57.86.87,1.29c6.27-3.84,12.78-7.54,19.3-11l-9.4,15.7a1.92,1.92,0,0,0,.06,2,1.29,1.29,0,0,0,1,.58,1.18,1.18,0,0,0,.59-.17L46.37,76.49,63.12,92.88a1.19,1.19,0,0,0,.85.36,1.24,1.24,0,0,0,.49-.11,1.59,1.59,0,0,0,.84-1.28l3.45-28.54L97.27,46.52a1.76,1.76,0,0,0,.66-2A1.37,1.37,0,0,0,96.68,43.44ZM37.92,54.89l12.89-1.77a1.32,1.32,0,0,0,.92-.63l9.46-15-.93,10.9C58,49.53,50.83,53.22,41.48,58.64a1.64,1.64,0,0,0-.41-.67Z"/><path class="cls-4" d="M48.36,45.9,22.58,51.13l12,11.73,5.66-3.63-5.65-5.52,16.08-2.2L63,31.91l-1.5,17.61S34.7,62.76,10.3,80.58c.22.36.44.71.67,1.06C42.6,62.19,80.67,46.27,102.4,37.87c-.3-.92-.63-1.83-1-2.73L70,41.51,74.2,7c-.68-.29-1.35-.57-2-.83Z"/><path class="cls-4" d="M96.68,45.06l-24.21,8.6L60.24,60.35,58.69,77.29l-9.32-9.11L34.28,77.06,39.73,68l-6.31,2.9L22.83,88.54l23.72-14L64,91.62l3.55-29.39Z"/><path class="cls-1" d="M83.83,64.64h0Z"/><path class="cls-5" d="M83.83,64.64h0Z"/><path class="cls-3" d="M19,82l-.2-.08a7.59,7.59,0,0,1-2.37-1.65,7.36,7.36,0,0,1-1.56-2.47,8.15,8.15,0,0,1-.54-3,7.85,7.85,0,0,1,.55-3,7,7,0,0,1,4-4,7.84,7.84,0,0,1,2.88-.53h5.32a2.67,2.67,0,0,1,1,.2,2.43,2.43,0,0,1,.89.59,2.66,2.66,0,0,1,.79,1.9v1.71a2.48,2.48,0,0,1-.07.61l.15.18L32,69.1A4,4,0,0,1,33,67.91a3.53,3.53,0,0,1,3.41-.42,3.33,3.33,0,0,1,.78.44,4.15,4.15,0,0,1,1,1.17L40,71.93V70.06a2.7,2.7,0,0,1,2.69-2.69H49.7a6.87,6.87,0,0,1,2.44.42l.15.06a5.72,5.72,0,0,1,3.25,3.37,6.24,6.24,0,0,1,.29,1.07l1.92-3.19a3.82,3.82,0,0,1,1.07-1.19,3.5,3.5,0,0,1,2.08-.68,3.54,3.54,0,0,1,1.33.26,3.48,3.48,0,0,1,.77.44,4,4,0,0,1,1,1.17l1.86,3.09.11-.3a7,7,0,0,1,1.62-2.44A7.14,7.14,0,0,1,70,67.9a7.93,7.93,0,0,1,2.89-.53h5.32a2.56,2.56,0,0,1,1,.2l.08,0a2.7,2.7,0,0,1,1.09-.23h8.76a2.67,2.67,0,0,1,1,.2,2.43,2.43,0,0,1,.89.59,2.66,2.66,0,0,1,.79,1.9v1.71a2.7,2.7,0,0,1-.49,1.56,2.93,2.93,0,0,1,.13.83v1.45a2.59,2.59,0,0,1-.17.92,2.68,2.68,0,0,1,.54,1.63v1.71a2.68,2.68,0,0,1-2.69,2.69H80.41a2.66,2.66,0,0,1-.79-.12,2.61,2.61,0,0,1-.79.12H72.91A7.45,7.45,0,0,1,70.12,82l-.2-.08-.55-.27a2.71,2.71,0,0,1-2,.88H65.31a2.67,2.67,0,0,1-1-.19A2.73,2.73,0,0,1,63,81.25l-.69-1.16H59.37l-.68,1.15a2.69,2.69,0,0,1-2.31,1.32H51.76a2.67,2.67,0,0,1-1-.19,2.82,2.82,0,0,1-1-.69l-1.68-1.84H47v0a2.7,2.7,0,0,1-2.69,2.69h-1.7a2.38,2.38,0,0,1-.53,0,2.24,2.24,0,0,1-.52,0H39.53a2.65,2.65,0,0,1-2.31-1.31l-.69-1.16H33.6l-.68,1.15a2.7,2.7,0,0,1-2.32,1.32h-2a2.45,2.45,0,0,1-.46,0,2.32,2.32,0,0,1-.46,0H21.8A7.36,7.36,0,0,1,19,82Z"/><path class="cls-2" d="M90.53,79.87V78.16a1.35,1.35,0,0,0-.84-1.25,1.09,1.09,0,0,0-.31-.08,1.46,1.46,0,0,0,.38-.27,1.36,1.36,0,0,0,.39-1V74.16a1.33,1.33,0,0,0-.58-1.1,1.35,1.35,0,0,0,1-1.29V70.06a1.35,1.35,0,0,0-.4-1,1.43,1.43,0,0,0-.44-.3,1.49,1.49,0,0,0-.51-.1H80.41a1.35,1.35,0,0,0-1,.4,1.15,1.15,0,0,0-.14.17,1.36,1.36,0,0,0-.59-.47,1.44,1.44,0,0,0-.5-.1H72.91a6.47,6.47,0,0,0-2.39.44,5.71,5.71,0,0,0-3.27,3.24,6.65,6.65,0,0,0-.45,2.47A7,7,0,0,0,67,76.71l-4.16-6.92a2.79,2.79,0,0,0-.69-.79,1.66,1.66,0,0,0-.47-.26,2,2,0,0,0-.82-.16,2.16,2.16,0,0,0-1.29.41,2.74,2.74,0,0,0-.71.8l-4.83,8-.74-.75a4.47,4.47,0,0,0,.53-.67,5.1,5.1,0,0,0,.74-2.78,5.78,5.78,0,0,0-.32-2,4.54,4.54,0,0,0-1-1.61,4.42,4.42,0,0,0-1.49-1l-.11,0a5.66,5.66,0,0,0-2-.34H42.65a1.35,1.35,0,0,0-1.34,1.35v6.72l-4.21-7a2.79,2.79,0,0,0-.69-.79,1.75,1.75,0,0,0-.46-.26,2.21,2.21,0,0,0-2.11.25,2.74,2.74,0,0,0-.71.8l-4.06,6.75V74.16a1.36,1.36,0,0,0-.39-1,1.2,1.2,0,0,0-.45-.29,1,1,0,0,0-.28-.08,1.38,1.38,0,0,0,.51-1.07V70.06a1.34,1.34,0,0,0-.39-1,1.37,1.37,0,0,0-.45-.3,1.44,1.44,0,0,0-.5-.1H21.8a6.51,6.51,0,0,0-2.39.44,6,6,0,0,0-2,1.26,5.68,5.68,0,0,0-1.3,2,6.46,6.46,0,0,0-.46,2.47,6.78,6.78,0,0,0,.45,2.48,6,6,0,0,0,3.22,3.38l.16.07a6.16,6.16,0,0,0,2.28.43h5.93a1.17,1.17,0,0,0,.45-.09,1.22,1.22,0,0,0,.46.09h2a1.34,1.34,0,0,0,1.16-.66l1.13-1.92h0a1.45,1.45,0,0,0,.51.1H37.3l1.08,1.81a1.31,1.31,0,0,0,.65.56,1.44,1.44,0,0,0,.5.1H41.6a1.4,1.4,0,0,0,.53-.11h0a1.35,1.35,0,0,0,.5.1h1.7a1.37,1.37,0,0,0,1.35-1.35V78.49h3l2.09,2.29a1.31,1.31,0,0,0,.49.34,1.39,1.39,0,0,0,.5.1h4.62a1.33,1.33,0,0,0,1.15-.66l1.14-1.92h0a1.45,1.45,0,0,0,.51.1h3.87l1.08,1.81a1.4,1.4,0,0,0,.65.56,1.45,1.45,0,0,0,.51.1h2.06a1.35,1.35,0,0,0,1.18-.69,1.32,1.32,0,0,0,.12-1,6,6,0,0,0,1.8,1.22l.16.07a6.16,6.16,0,0,0,2.28.43h5.92a1.38,1.38,0,0,0,.79-.26,1.38,1.38,0,0,0,.79.26h8.77a1.37,1.37,0,0,0,1.35-1.35ZM50.12,74.21a.74.74,0,0,1-.42.08h-4V73.12h4a.84.84,0,0,1,.38.06.1.1,0,0,1,.07,0,.81.81,0,0,1,.08.44A1,1,0,0,1,50.12,74.21Zm28.95-1.39v0h0Z"/><path class="cls-4" d="M21.8,79.87a4.59,4.59,0,0,1-3.41-1.44,4.84,4.84,0,0,1-1-1.58,5.58,5.58,0,0,1-.35-2,5.43,5.43,0,0,1,.35-2,4.43,4.43,0,0,1,1-1.51,4.53,4.53,0,0,1,1.51-1,5.13,5.13,0,0,1,1.9-.34h5.32v1.71H21.8a3.05,3.05,0,0,0-1.22.24,3.12,3.12,0,0,0-1,.65,3,3,0,0,0-.63,1A3.57,3.57,0,0,0,18.75,75,3.63,3.63,0,0,0,19,76.23a3.13,3.13,0,0,0,.63,1,3,3,0,0,0,1,.66,2.9,2.9,0,0,0,1.22.25H26V75.61H21.57V74.16h6.16v5.71Z"/><path class="cls-4" d="M39.53,79.87,38.06,77.4H33.42L34.23,76h3l-2.19-3.67L30.6,79.87h-2l5.64-9.39a1.43,1.43,0,0,1,.35-.41.81.81,0,0,1,.49-.15.76.76,0,0,1,.48.15,1.4,1.4,0,0,1,.34.41l5.66,9.39Z"/><path class="cls-4" d="M51.76,79.87l-2.48-2.72H45.61V75.63H49.7a1.85,1.85,0,0,0,1.4-.5,2.11,2.11,0,0,0,.47-1.47,1.85,1.85,0,0,0-.49-1.42,1.94,1.94,0,0,0-1.38-.47H44.35v8.1h-1.7V70.06H49.7a4.12,4.12,0,0,1,1.49.25,3.07,3.07,0,0,1,1.12.71A3.29,3.29,0,0,1,53,72.15a4.35,4.35,0,0,1,.24,1.49,3.76,3.76,0,0,1-.53,2,3,3,0,0,1-1.5,1.2l3,3Z"/><path class="cls-4" d="M65.31,79.87,63.84,77.4H59.2L60,76h3l-2.19-3.67-4.45,7.53h-2l5.64-9.39a1.43,1.43,0,0,1,.35-.41.81.81,0,0,1,.49-.15.76.76,0,0,1,.48.15,1.4,1.4,0,0,1,.34.41l5.65,9.39Z"/><path class="cls-4" d="M72.91,79.87a4.59,4.59,0,0,1-3.41-1.44,4.68,4.68,0,0,1-1-1.58,5.38,5.38,0,0,1-.36-2,5.23,5.23,0,0,1,.36-2,4.29,4.29,0,0,1,1-1.51,4.53,4.53,0,0,1,1.51-1,5.1,5.1,0,0,1,1.9-.34h5.32v1.71H72.91a3.05,3.05,0,0,0-1.22.24,3,3,0,0,0-1,.65,3,3,0,0,0-.63,1A3.37,3.37,0,0,0,69.86,75a3.42,3.42,0,0,0,.23,1.28,3.13,3.13,0,0,0,.63,1,3.08,3.08,0,0,0,2.19.91H77.1V75.61H72.68V74.16h6.15v5.71Z"/><path class="cls-4" d="M80.41,79.87V70.06h8.76v1.71H82.11v6.39h7.07v1.71Zm3-4.26V74.16h5.44v1.45Z"/><path class="cls-3" d="M47.37,67.89a4.85,4.85,0,0,1-4.78-6.79l3.84-10.54c.08-.22.16-.44.25-.65L31.84,65.2a8.14,8.14,0,0,1-5.91,2.69H18.37a4.59,4.59,0,0,1-4.46-2.71c-.53-1.27-.7-3.26,1.51-5.5L27.6,47.14a6.31,6.31,0,0,1-3.43,1H17.89a4.85,4.85,0,0,1-4.78-6.79l3.94-10.82a9.32,9.32,0,0,1,9.2-6.62H51.67c3.28,0,5,1.42,5.81,2.61l.2.31A15.08,15.08,0,0,1,67,23.87H84.33c3.92,0,6.76,1.2,8.42,3.56s1.86,5.73.41,9.77l-2.73,7.5a16,16,0,0,1-6.92,8.69,4.57,4.57,0,0,1,1.15,1.14,5,5,0,0,1,.47,4.73L83.48,63.8a6,6,0,0,1-5.86,4.09Z"/><path class="cls-2" d="M91.13,28.57c-1.26-1.81-3.56-2.72-6.8-2.72H67a12.51,12.51,0,0,0-10.42,4.86,4.24,4.24,0,0,0-.67-3.09,4.78,4.78,0,0,0-4.19-1.77H26.25a7.37,7.37,0,0,0-7.34,5.32L15,42a3,3,0,0,0,.23,2.92,3.08,3.08,0,0,0,2.69,1.22h6.28a4.06,4.06,0,0,0,4-2.79l2.19-6h9.39a4.1,4.1,0,0,1-.55.71l-22.38,23c-.43.43-1.75,1.77-1.09,3.35a2.59,2.59,0,0,0,2.64,1.5h7.56a6.25,6.25,0,0,0,4.5-2.09L51.6,42A11,11,0,0,0,53,40.25a2.94,2.94,0,0,0,.32.64A3.1,3.1,0,0,0,56,42.11H58.5c-4.82.8-8.32,3.92-10.22,9.13L44.45,61.78a3,3,0,0,0,.23,2.91,3.06,3.06,0,0,0,2.69,1.23H77.62a4.06,4.06,0,0,0,4-2.79l1.66-4.55a2.89,2.89,0,0,0-2.93-4.14H60.81c.34-.9.76-1.07,1.42-1.07H75.75c6.13,0,10.57-3.23,12.83-9.35l2.72-7.49C92.52,33.14,92.46,30.46,91.13,28.57ZM76.06,40.78c-.34.94-.77,1.12-1.44,1.12H63.72a4.07,4.07,0,0,0,2.6-2.58l.32-.89c.34-.93.77-1.11,1.43-1.11h9.25Z"/><path class="cls-4" d="M26.32,42.66a2.09,2.09,0,0,1-2.15,1.49H17.89c-1.07,0-1.43-.49-1.06-1.49l3.93-10.82a5.47,5.47,0,0,1,5.49-4H51.67q4,0,2.56,4l-2.14,5.88a8,8,0,0,1-1.9,2.89L29,62.45a4.33,4.33,0,0,1-3.08,1.49H18.37c-1.07,0-1.12-.5-.14-1.49l22.38-23A5.91,5.91,0,0,0,42,37.27l.41-1.12q.3-.81-.51-.81H29.79a1.09,1.09,0,0,0-1.1.81Z"/><path class="cls-4" d="M64.46,38.64a2.1,2.1,0,0,1-2.15,1.49H56c-1.08,0-1.43-.5-1.07-1.49l1-2.77q2.93-8.05,11-8H84.33q8,0,5.11,8l-2.72,7.48q-3,8-11,8H62.23a3.28,3.28,0,0,0-3.29,2.41l-.66,1.81c-.19.54,0,.81.52.81H80.35c1.07,0,1.43.5,1.07,1.49l-1.65,4.54a2.11,2.11,0,0,1-2.15,1.49H47.37c-1.07,0-1.43-.5-1.07-1.49l3.84-10.54q2.93-8,11-8H74.62a3.28,3.28,0,0,0,3.3-2.41l1.34-3.7c.59-1.61.08-2.42-1.53-2.42H68.07a3.29,3.29,0,0,0-3.29,2.42Z"/></g></g></svg>