<svg xmlns="http://www.w3.org/2000/svg" width="32.569" height="32.922" viewBox="0 0 32.569 32.922">
  <g id="shopping-cart" transform="translate(-449 635.972)">
    <g id="グループ_4" data-name="グループ 4" transform="translate(449 -635.972)">
      <g id="グループ_3" data-name="グループ 3" transform="translate(0 0)">
        <path id="パス_14" data-name="パス 14" d="M100.184,350.322a3.531,3.531,0,1,0,3.531,3.531A3.531,3.531,0,0,0,100.184,350.322Zm0,5.493a1.962,1.962,0,1,1,1.962-1.962A1.962,1.962,0,0,1,100.184,355.816Z" transform="translate(-89.735 -324.463)" fill="#dbdbdb"/>
        <path id="パス_15" data-name="パス 15" d="M298.716,350.322a3.531,3.531,0,1,0,3.531,3.531A3.531,3.531,0,0,0,298.716,350.322Zm0,5.493a1.962,1.962,0,1,1,1.962-1.962A1.962,1.962,0,0,1,298.716,355.816Z" transform="translate(-274.272 -324.463)" fill="#dbdbdb"/>
        <path id="パス_16" data-name="パス 16" d="M32.415,11.286a.932.932,0,0,0-.6-.314L7.216,10.619l-.68-2.158A3.49,3.49,0,0,0,3.287,6.028H.756a.785.785,0,0,0,0,1.57H3.287A1.973,1.973,0,0,1,5.1,8.971L9.9,24l-.378.9a3.893,3.893,0,0,0,.34,3.414,3.486,3.486,0,0,0,2.833,1.648h14.7a.785.785,0,0,0,0-1.57h-14.7a1.914,1.914,0,0,1-1.587-.942,2.231,2.231,0,0,1-.189-1.884l.3-.706,15.905-1.727a4.213,4.213,0,0,0,3.589-3.3l1.813-7.887A.687.687,0,0,0,32.415,11.286Zm-3.173,8.2a2.6,2.6,0,0,1-2.3,2.08L11.221,23.254,7.707,12.189l23.159.353Z" transform="translate(0 -6.028)" fill="#dbdbdb"/>
      </g>
    </g>
  </g>
</svg>
