<svg xmlns="http://www.w3.org/2000/svg" width="24" height="24" viewBox="0 0 24 24">
  <path id="iconmonstr-instagram-15" d="M12,2A10,10,0,1,1,2,12,10.011,10.011,0,0,1,12,2Zm0-2A12,12,0,1,0,24,12,12,12,0,0,0,12,0Zm0,7.082c1.6,0,1.792.006,2.425.035a2.254,2.254,0,0,1,2.46,2.459c.028.633.034.822.034,2.424s-.006,1.792-.034,2.424a2.255,2.255,0,0,1-2.46,2.46c-.633.028-.822.035-2.425.035s-1.792-.006-2.424-.035a2.256,2.256,0,0,1-2.46-2.46c-.028-.632-.035-.822-.035-2.424s.007-1.792.035-2.424a2.254,2.254,0,0,1,2.46-2.46c.632-.029.822-.034,2.424-.034ZM12,6c-1.63,0-1.833.007-2.474.037a3.311,3.311,0,0,0-3.49,3.489C6.007,10.167,6,10.371,6,12s.007,1.834.036,2.474a3.313,3.313,0,0,0,3.49,3.49c.641.029.844.036,2.474.036s1.834-.007,2.475-.036a3.312,3.312,0,0,0,3.489-3.49c.029-.64.036-.844.036-2.474s-.007-1.833-.036-2.474a3.31,3.31,0,0,0-3.489-3.489C13.834,6.007,13.63,6,12,6Zm0,2.919A3.081,3.081,0,1,0,15.081,12,3.081,3.081,0,0,0,12,8.919ZM12,14a2,2,0,1,1,2-2A2,2,0,0,1,12,14Zm3.2-5.922a.72.72,0,1,0,.721.72A.72.72,0,0,0,15.2,8.078Z"/>
</svg>
