<svg id="user" xmlns="http://www.w3.org/2000/svg" width="29.627" height="30" viewBox="0 0 29.627 30">
  <g id="グループ_2" data-name="グループ 2" transform="translate(0)">
    <path id="パス_13" data-name="パス 13" d="M25.289,19.393a14.732,14.732,0,0,0-5.629-3.575A8.691,8.691,0,0,0,14.814,0,8.691,8.691,0,0,0,9.968,15.818a14.732,14.732,0,0,0-5.629,3.575A15,15,0,0,0,0,30H2.315a12.593,12.593,0,0,1,12.5-12.656A12.593,12.593,0,0,1,27.313,30h2.315A15,15,0,0,0,25.289,19.393ZM14.814,15a6.329,6.329,0,1,1,6.25-6.328A6.3,6.3,0,0,1,14.814,15Z" transform="translate(0)" fill="#dbdbdb"/>
  </g>
</svg>
