<svg xmlns="http://www.w3.org/2000/svg" width="24" height="24" viewBox="0 0 24 24">
  <path id="iconmonstr-twitter-5" d="M12,2A10,10,0,1,1,2,12,10.011,10.011,0,0,1,12,2Zm0-2A12,12,0,1,0,24,12,12,12,0,0,0,12,0Zm6.5,8.778a4.928,4.928,0,0,1-1.414.388A2.473,2.473,0,0,0,18.169,7.8a4.926,4.926,0,0,1-1.564.6,2.463,2.463,0,0,0-4.195,2.245A6.993,6.993,0,0,1,7.336,8.074,2.465,2.465,0,0,0,8.1,11.361a2.457,2.457,0,0,1-1.114-.308A2.465,2.465,0,0,0,8.959,13.5a2.467,2.467,0,0,1-1.112.042,2.465,2.465,0,0,0,2.3,1.709A4.955,4.955,0,0,1,6.5,16.27a7,7,0,0,0,10.771-6.218A4.963,4.963,0,0,0,18.5,8.778Z"/>
</svg>
